<?xml version="1.0" standalone="no"?>
<!DOCTYPE svg PUBLIC "-//W3C//DTD SVG 20010904//EN"
 "http://www.w3.org/TR/2001/REC-SVG-20010904/DTD/svg10.dtd">
<svg version="1.0" xmlns="http://www.w3.org/2000/svg"
 width="64.000000pt" height="64.000000pt" viewBox="0 0 64.000000 64.000000"
 preserveAspectRatio="xMidYMid meet">

<g transform="translate(0.000000,64.000000) scale(0.100000,-0.100000)"
fill="#000000" stroke="none">
<path d="M0 320 l0 -320 320 0 320 0 0 320 0 320 -320 0 -320 0 0 -320z m357
203 l38 37 77 -77 78 -77 -37 -38 -37 -38 39 -40 39 -40 -77 -77 -77 -77 -40
39 -40 39 -40 -39 -40 -39 -77 77 -77 77 39 40 39 40 -37 37 -37 38 77 77 77
78 38 -37 38 -37 37 37z"/>
</g>
</svg>
