<svg xmlns="http://www.w3.org/2000/svg" aria-hidden="true" style="position:absolute;width:0;height:0;overflow:hidden">
    <defs>
        <symbol id="icon-menu" viewBox="0 0 32 32">
            <path d="M2 6h28v6h-28zM2 14h28v6h-28zM2 22h28v6h-28z"></path>
        </symbol>
        <symbol id="icon-mail" viewBox="0 0 32 32">
            <path d="M16 0c-8.837 0-16 7.163-16 16s7.163 16 16 16 16-7.163 16-16-7.163-16-16-16zM8 8h16c0.286 0 0.563 0.061 0.817 0.177l-8.817 10.286-8.817-10.287c0.254-0.116 0.531-0.177 0.817-0.177zM6 22v-12c0-0.042 0.002-0.084 0.004-0.125l5.864 6.842-5.8 5.8c-0.045-0.167-0.069-0.34-0.069-0.517zM24 24h-16c-0.177 0-0.35-0.024-0.517-0.069l5.691-5.691 2.826 3.297 2.826-3.297 5.691 5.691c-0.167 0.045-0.34 0.069-0.517 0.069zM26 22c0 0.177-0.024 0.35-0.069 0.517l-5.8-5.8 5.865-6.842c0.003 0.041 0.004 0.083 0.004 0.125v12z"></path>
        </symbol>
        <symbol id="icon-whatsapp-white-icon" viewBox="0 0 32 32">
            <path fill="#fff" style="fill: var(--color1, #fff)" d="M27.198 4.65c-2.953-2.973-6.976-4.65-11.168-4.65h-0.048c-8.738 0-15.849 7.113-15.849 15.856l0 0.001c0.001 2.918 0.789 5.651 2.164 7.999l-0.041-0.075-2.256 8.219 8.406-2.206c2.187 1.215 4.796 1.931 7.572 1.933h0.004c8.758 0 15.86-7.102 15.86-15.86 0-4.206-1.673-8.241-4.645-11.213l0.001-0.003zM15.987 29.056c-2.362 0-4.683-0.639-6.712-1.844l-0.483-0.288-4.989 1.307 1.327-4.863-0.312-0.499c-1.323-2.102-2.028-4.541-2.028-7.026 0-7.28 5.904-13.184 13.184-13.184 3.504 0 6.866 1.396 9.339 3.877 2.386 2.387 3.862 5.685 3.863 9.327v0c0 7.284-5.906 13.192-13.19 13.192h0.002zM23.218 19.177c-0.398-0.2-2.344-1.156-2.705-1.288s-0.626-0.2-0.896 0.2c-0.269 0.401-1.024 1.288-1.255 1.555s-0.463 0.301-0.856 0.101c-0.393-0.2-1.676-0.618-3.184-1.969-0.855-0.79-1.59-1.693-2.185-2.689l-0.030-0.055c-0.232-0.398-0.025-0.612 0.176-0.805s0.398-0.462 0.593-0.694c0.158-0.191 0.292-0.409 0.391-0.646l0.006-0.017c0.046-0.093 0.073-0.202 0.073-0.317 0-0.139-0.039-0.269-0.106-0.38l0.002 0.003c-0.107-0.199-0.904-2.149-1.222-2.944s-0.649-0.663-0.893-0.682c-0.244-0.019-0.495-0.012-0.756-0.012-0.423 0.010-0.8 0.199-1.060 0.493l-0.001 0.002c-0.357 0.394-1.383 1.356-1.383 3.306s1.418 3.832 1.617 4.1c0.199 0.268 2.794 4.268 6.774 5.984 0.945 0.406 1.682 0.65 2.255 0.838 0.472 0.147 1.015 0.232 1.577 0.233h0c0.307 0 0.614-0.026 0.916-0.077 0.762-0.111 2.343-0.957 2.676-1.881s0.332-1.725 0.232-1.883c-0.1-0.158-0.357-0.273-0.756-0.476l-0.002 0.001z"></path>
        </symbol>
        <symbol id="icon-telegram-white" viewBox="0 0 32 32">
            <path fill="#fff" style="fill: var(--color1, #fff)" d="M32 16c0-8.836-7.164-16-16-16s-16 7.164-16 16 7.164 16 16 16 16-7.164 16-16zM7.242 15.831c4.664-2.033 7.774-3.372 9.331-4.019 4.444-1.848 5.367-2.169 5.969-2.18 0.133-0.002 0.428 0.031 0.62 0.186 0.162 0.131 0.206 0.309 0.227 0.433s0.048 0.408 0.027 0.63c-0.241 2.53-1.282 8.669-1.813 11.503-0.224 1.199-0.666 1.601-1.094 1.641-0.929 0.086-1.634-0.614-2.534-1.204-1.408-0.922-2.204-1.497-3.571-2.398-1.58-1.041-0.556-1.613 0.344-2.548 0.236-0.245 4.329-3.969 4.409-4.306 0.010-0.043 0.019-0.2-0.074-0.283s-0.232-0.054-0.331-0.032c-0.141 0.032-2.391 1.519-6.749 4.461-0.639 0.439-1.217 0.652-1.736 0.641-0.571-0.012-1.67-0.323-2.487-0.589-1.002-0.326-1.798-0.498-1.729-1.051 0.036-0.288 0.433-0.582 1.19-0.884z"></path>
        </symbol>
    </defs>
</svg>